<svg xmlns="http://www.w3.org/2000/svg" width="24" height="24" viewBox="0 0 16 16"><g fill="currentColor"><path fill-rule="evenodd" d="M8.001 5.5c-.366 0-.705.119-1 .313V4.5a.5.5 0 0 0-1 0v5a.5.5 0 0 0 .5.5c.217 0 .397-.14.466-.334c.303.207.654.334 1.034.334c1.103 0 2-1.009 2-2.25s-.897-2.25-2-2.25m0 3.5c-.552 0-1-.561-1-1.25s.448-1.25 1-1.25s1 .561 1 1.25S8.553 9 8.001 9" clip-rule="evenodd"/><path d="M12.749 10c-1.103 0-2-1.009-2-2.25s.897-2.25 2-2.25c.143 0 1.252.105 1.252.736c0 .275-.224.5-.501.5a.57.57 0 0 1-.31-.104c-.109-.063-.226-.132-.441-.132c-.552 0-1 .561-1 1.25s.448 1.25 1 1.25c.212 0 .33-.068.438-.131a.6.6 0 0 1 .313-.104a.5.5 0 0 1 .501.499c0 .633-1.114.736-1.252.736"/><path fill-rule="evenodd" d="M1.898 5.646c.093-.093.466-.396 1.354-.396c.87 0 1.749.515 1.749 1.5V9.5a.5.5 0 0 1-.855.351a2.6 2.6 0 0 1-.895.149c-1.313 0-2-.754-2-1.5s.687-1.5 2-1.5c.302 0 .546.023.75.056V6.75c0-.494-.72-.5-.75-.5c-.463 0-.65.113-.672.127l-.002.001a.483.483 0 0 1-.693-.013a.515.515 0 0 1 .014-.719M3.252 8c-.649 0-1 .258-1 .5s.351.5 1 .5c.447 0 .657-.115.75-.189v-.737A3 3 0 0 0 3.252 8" clip-rule="evenodd"/></g></svg>