<svg xmlns="http://www.w3.org/2000/svg" width="24" height="24" viewBox="0 0 16 16"><path fill="currentColor" d="M15 3.5v4c0 .4-.15.78-.44 1.06c-.28.28-.66.44-1.06.44H11v-.5c0-.17-.02-.34-.05-.5h2.55c.13 0 .26-.05.35-.15c.1-.09.15-.22.15-.35v-4a.47.47 0 0 0-.15-.35a.47.47 0 0 0-.35-.15h-6a.47.47 0 0 0-.35.15a.47.47 0 0 0-.15.35V6H6V3.5A1.5 1.5 0 0 1 7.5 2h6A1.5 1.5 0 0 1 15 3.5M12.5 5a.5.5 0 0 0 0-1h-4a.5.5 0 0 0 0 1zm.5 1.5c0-.28-.22-.5-.5-.5h-4c.82 0 1.54.39 2 1h2c.28 0 .5-.22.5-.5M7.5 10h-4a.5.5 0 0 0 0 1h4a.5.5 0 0 0 0-1M10 8.5v4c0 .827-.673 1.5-1.5 1.5h-6c-.827 0-1.5-.673-1.5-1.5v-4C1 7.673 1.673 7 2.5 7h6c.827 0 1.5.673 1.5 1.5"/></svg>